<svg xmlns="http://www.w3.org/2000/svg" viewBox="0 0 313.41 302.69"><g id="Layer_2" data-name="Layer 2"><g id="Layer_1-2" data-name="Layer 1"><path d="M61.87,121.71H27.5c-.25-9.25.16-18.19,2.81-26.83,12-39,38.5-61.83,78.27-69.52,5-1,10.2-.93,15.31-.95q33.2-.14,66.37,0c43.1.08,79.57,25,94.31,65.52,15.06,41.45-4,90.74-43.9,108.29-1.14.5-2.3.94-4.1,1.67l76.84,102.29a25.68,25.68,0,0,1-3.18.51c-10.17,0-28.83-.07-38.27-.1a12,12,0,0,1-9.39-4.57c-14.19-17.9-66.78-84.3-94.29-119.22-1.68-2.13-3.18-4.39-5.09-7,9.63,0,18.67-.11,27.71,0s18,.24,26.69-2.66c19.12-6.37,33.18-24.81,35.21-44.87,3.11-30.65-21.2-63.17-57.24-63.33-25-.12-50,.36-75,0-27.11-.45-48.94,19.44-55.33,43.27C63.74,109.75,63,115.58,61.87,121.71Z"/><path d="M68,182.59H8.31A5.61,5.61,0,0,1,2.7,177V152.7a5.6,5.6,0,0,1,5.6-5.6c15.1,0,56.41,0,77.09.07,2.29,0,3.67-.41,5-2.74,4.39-8,11.86-21.52,17.64-32a28.4,28.4,0,0,1,25.11-14.67c16.53.15,41.23.35,55.51.36a62.31,62.31,0,0,1,7.1.38,17.41,17.41,0,0,1,15.6,18c-.31,9.47-7.4,17.12-16.77,17.32-15.11.34-30.24.35-45.36.32-11.8,0-11.83-.17-17.73,10.17-25.11,44.08-73.53,129-86.83,152.26a12,12,0,0,1-10.41,6.07c-9.2,0-25.28.06-34.2.06Z"/><path d="M255.34.18c1.11-.06,2.19-.18,3.27-.18q23.79,0,47.6.07c6.51,0,6.52,0,6.53,6.3,0,11.87-.06,23.74.1,35.61,0,3-.73,4.25-3.95,4.15-6.61-.21-13.24,0-19.86-.17a5.21,5.21,0,0,1-3.71-1.7c-10-14.32-19.91-28.73-29.82-43.13C255.38,1,255.42.67,255.34.18Z"/><path d="M58.48.88c-1.91,3-3.77,6.06-5.71,9-7,10.67-14,21.26-20.88,32C29.94,45,27.71,46.24,24,46c-6.1-.33-12.24-.1-18.36.06-2.32.06-3.45-.55-3.44-3.1.08-13.24.07-26.49,0-39.73C2.2,1.34,2.68.21,4.9.21c17.49.05,35,0,52.48.06C57.58.27,57.78.48,58.48.88Z"/><path d="M312.68,242.6c-7,0-13.57.05-20.14-.07a3.81,3.81,0,0,1-2.25-1.58c-4-5.13-8-10.25-11.67-15.56a4.69,4.69,0,0,1-.09-4.12A127.69,127.69,0,0,1,285.77,210a4.67,4.67,0,0,1,3.16-1.9c6.86-.18,13.73-.11,20.59-.12,1.76,0,3.2.25,3.18,2.6C312.66,221,312.68,231.48,312.68,242.6Z"/><path d="M158.42,207.61H125.9a15.05,15.05,0,0,0-13.07,7.58L97.16,242.61h94l-20.49-28.7A15.07,15.07,0,0,0,158.42,207.61Z"/></g></g></svg>